<svg width="32" height="32" viewBox="0 0 32 32" fill="none" xmlns="http://www.w3.org/2000/svg">
<path fill-rule="evenodd" clip-rule="evenodd" d="M1.3335 23.9998V11.9258C1.3335 9.02118 3.68817 6.6665 6.59281 6.6665C7.47205 6.6665 8.29311 6.22709 8.78082 5.49552L9.08354 5.04144C10.0727 3.55771 11.7379 2.6665 13.5211 2.6665H18.4792C20.2624 2.6665 21.9276 3.55771 22.9168 5.04144L23.2195 5.49552C23.7072 6.22708 24.5283 6.6665 25.4075 6.6665C28.3122 6.6665 30.6668 9.02118 30.6668 11.9258V23.9998C30.6668 26.9454 28.279 29.3332 25.3335 29.3332H6.66683C3.72131 29.3332 1.3335 26.9454 1.3335 23.9998ZM20.0002 17.3332C20.0002 19.5423 18.2093 21.3332 16.0002 21.3332C13.791 21.3332 12.0002 19.5423 12.0002 17.3332C12.0002 15.124 13.791 13.3332 16.0002 13.3332C18.2093 13.3332 20.0002 15.124 20.0002 17.3332ZM22.6668 17.3332C22.6668 21.0151 19.6821 23.9998 16.0002 23.9998C12.3183 23.9998 9.3335 21.0151 9.3335 17.3332C9.3335 13.6513 12.3183 10.6665 16.0002 10.6665C19.6821 10.6665 22.6668 13.6513 22.6668 17.3332Z" fill="black"/>
</svg>
