<svg width="32" height="32" viewBox="0 0 32 32" fill="none" xmlns="http://www.w3.org/2000/svg">
<circle cx="10.0666" cy="26.0666" r="2.66667" fill="#CCCCCC"/>
<path d="M25.5335 26.0666C25.5335 27.5393 24.3396 28.7332 22.8669 28.7332C21.3941 28.7332 20.2002 27.5393 20.2002 26.0666C20.2002 24.5938 21.3941 23.3999 22.8669 23.3999C24.3396 23.3999 25.5335 24.5938 25.5335 26.0666Z" fill="#CCCCCC"/>
<path d="M3.30013 4.46631C2.56375 4.46631 1.9668 5.06326 1.9668 5.79964C1.9668 6.53602 2.56375 7.13298 3.30013 7.13298H5.89361L9.86365 19.5393C10.0531 20.1313 10.6264 20.5139 11.2457 20.4616L23.1121 19.4599C24.7595 19.3208 26.1516 18.1826 26.6151 16.5957L28.4134 10.4402C28.5311 10.0373 28.4522 9.60242 28.2004 9.26654C27.9486 8.93066 27.5533 8.73298 27.1335 8.73298H9.20548L8.13678 5.39327C7.96006 4.84103 7.4467 4.46631 6.86688 4.46631H3.30013Z" fill="#CCCCCC"/>
</svg>
