<svg width="20" height="20" viewBox="0 0 20 20" fill="none" xmlns="http://www.w3.org/2000/svg">
<path fill-rule="evenodd" clip-rule="evenodd" d="M12.5 16C13.6562 16 14.7291 15.6432 15.6146 15.0338L18.6063 18.0255L19.5962 17.0355L16.6594 14.0987C17.4946 13.1341 18 11.8761 18 10.5C18 7.46243 15.5376 5 12.5 5C9.46243 5 7 7.46243 7 10.5C7 13.5376 9.46243 16 12.5 16ZM12.5 14.6C14.7644 14.6 16.6 12.7644 16.6 10.5C16.6 8.23563 14.7644 6.4 12.5 6.4C10.2356 6.4 8.4 8.23563 8.4 10.5C8.4 12.7644 10.2356 14.6 12.5 14.6Z" fill="black"/>
<path d="M7 6H1V7.4H7V6Z" fill="black"/>
<path d="M1 10.3H5V11.7H1V10.3Z" fill="black"/>
<path d="M7 14.6H1V16H7V14.6Z" fill="black"/>
</svg>
