<svg width="14" height="20" viewBox="0 0 14 20" fill="none" xmlns="http://www.w3.org/2000/svg">
<g clip-path="url(#clip0_3966_36373)">
<g clip-path="url(#clip1_3966_36373)">
<path d="M3.29255 14.6145L4.35524 4.77132C4.44434 3.94801 5.18423 3.35232 6.00758 3.441L12.371 4.128C13.1945 4.21691 13.79 4.95686 13.7013 5.78034L12.7996 14.1322C12.7107 14.9558 11.9709 15.5514 11.1473 15.4625L3.29255 14.6145ZM11.2182 6.41788L6.64512 5.92416L5.93673 12.4856L10.5098 12.9794L11.2182 6.41788Z" fill="black" stroke="white"/>
<path fill-rule="evenodd" clip-rule="evenodd" d="M8.00002 15.9999V8.3999H2.40002V15.9999H8.00002ZM8.40002 17.3999C8.95231 17.3999 9.40002 16.9522 9.40002 16.3999V8.3999V7.9999C9.40002 7.44762 8.95231 6.9999 8.40002 6.9999H8.00002H2.00002C1.44774 6.9999 1.00002 7.44762 1.00002 7.9999V15.9999V17.3999H2.40002H8.40002Z" fill="black"/>
<path fill-rule="evenodd" clip-rule="evenodd" d="M2.47955e-05 18.3999V7.9999C2.47955e-05 6.89533 0.895455 5.9999 2.00002 5.9999H8.40002C9.50459 5.9999 10.4 6.89533 10.4 7.9999V16.3999C10.4 17.5045 9.50459 18.3999 8.40002 18.3999H2.47955e-05ZM7.00002 14.9999V9.3999H3.40002V14.9999H7.00002ZM8.00002 15.9999H2.40002V8.3999H8.00002V15.9999ZM9.40002 16.3999C9.40002 16.9522 8.95231 17.3999 8.40002 17.3999H1.00002V7.9999C1.00002 7.44762 1.44774 6.9999 2.00002 6.9999H8.40002C8.95231 6.9999 9.40002 7.44762 9.40002 7.9999V16.3999Z" fill="white"/>
<rect x="3.5" y="9.5" width="4" height="6" fill="white" stroke="white"/>
</g>
</g>
<defs>
<clipPath id="clip0_3966_36373">
<rect width="14" height="20" fill="white"/>
</clipPath>
<clipPath id="clip1_3966_36373">
<rect width="14" height="20" fill="white"/>
</clipPath>
</defs>
</svg>
