<svg width="102" height="28" viewBox="0 0 102 28" fill="none" xmlns="http://www.w3.org/2000/svg">
<g clip-path="url(#clip0_3966_36350)">
<path d="M38.6642 0.57959L29.9271 23.3918H34.6201L36.4162 18.6255H45.6863L47.4901 23.3918H52.1484L43.4653 0.57959H38.6642ZM38.0268 14.4384L41.0783 6.41205L44.1181 14.4384H38.0268Z" fill="black"/>
<path d="M57.7568 17.5088L53.9676 7.36572H49.4909L55.5937 23.3915H60.0318L66.0265 7.36572H61.5498L57.7568 17.5088Z" fill="black"/>
<path d="M71.6582 7.36572H67.3978V23.3915H71.6582V7.36572Z" fill="black"/>
<path d="M69.526 6.21099C71.2411 6.21099 72.6315 4.82061 72.6315 3.1055C72.6315 1.39038 71.2411 0 69.526 0C67.8109 0 66.4205 1.39038 66.4205 3.1055C66.4205 4.82061 67.8109 6.21099 69.526 6.21099Z" fill="black"/>
<path d="M80.1018 3.08984H75.853V7.33865H73.3616V11.2012H75.853V18.0109C75.853 21.8735 77.9813 23.5344 80.9786 23.5344C81.9901 23.5477 82.9935 23.3517 83.9257 22.9588V18.9881C83.4169 19.1744 82.88 19.2724 82.3382 19.2778C81.0365 19.2778 80.0979 18.7718 80.0979 17.0375V11.2012H83.9257V7.37728H80.1018V3.08984Z" fill="black"/>
<path d="M92.8829 7.07617C91.2401 7.07541 89.634 7.56191 88.2677 8.47412C86.9014 9.38634 85.8364 10.6833 85.2074 12.2009C84.5784 13.7185 84.4136 15.3886 84.7339 16.9998C85.0542 18.6111 85.8452 20.0912 87.0069 21.2528C88.1685 22.4145 89.6486 23.2055 91.2598 23.5258C92.8711 23.8461 94.5412 23.6813 96.0588 23.0523C97.5764 22.4233 98.8734 21.3583 99.7856 19.992C100.698 18.6257 101.184 17.0196 101.184 15.3768C101.182 13.1757 100.308 11.065 98.7512 9.5085C97.1948 7.95205 95.084 7.0772 92.8829 7.07617V7.07617ZM92.8829 19.4364C92.0829 19.4371 91.3006 19.2006 90.6351 18.7567C89.9695 18.3128 89.4506 17.6814 89.1439 16.9425C88.8372 16.2036 88.7566 15.3904 88.9122 14.6057C89.0678 13.8209 89.4526 13.1 90.018 12.534C90.5835 11.9681 91.3041 11.5825 92.0886 11.4262C92.8732 11.2698 93.6866 11.3497 94.4257 11.6556C95.1649 11.9616 95.7968 12.4799 96.2413 13.1451C96.6858 13.8102 96.9231 14.5922 96.9231 15.3923C96.9211 16.4621 96.4944 17.4874 95.7368 18.2428C94.9792 18.9982 93.9527 19.4219 92.8829 19.4209V19.4364Z" fill="black"/>
<path d="M8.3045 25.6666C12.8909 25.6666 16.609 21.9486 16.609 17.3621C16.609 12.7757 12.8909 9.05762 8.3045 9.05762C3.71805 9.05762 0 12.7757 0 17.3621C0 21.9486 3.71805 25.6666 8.3045 25.6666Z" fill="#04E061"/>
<path d="M22.708 24.6199C25.4791 24.6199 27.7255 22.3735 27.7255 19.6024C27.7255 16.8314 25.4791 14.585 22.708 14.585C19.937 14.585 17.6906 16.8314 17.6906 19.6024C17.6906 22.3735 19.937 24.6199 22.708 24.6199Z" fill="#FF4053"/>
<path d="M9.89206 7.98003C11.6072 7.98003 12.9976 6.58966 12.9976 4.87454C12.9976 3.15942 11.6072 1.76904 9.89206 1.76904C8.17694 1.76904 6.78656 3.15942 6.78656 4.87454C6.78656 6.58966 8.17694 7.98003 9.89206 7.98003Z" fill="#965EEB"/>
<path d="M20.7574 13.5035C24.4862 13.5035 27.5091 10.4806 27.5091 6.75175C27.5091 3.02286 24.4862 0 20.7574 0C17.0285 0 14.0056 3.02286 14.0056 6.75175C14.0056 10.4806 17.0285 13.5035 20.7574 13.5035Z" fill="#00AAFF"/>
</g>
<defs>
<clipPath id="clip0_3966_36350">
<rect width="101.733" height="28" fill="white"/>
</clipPath>
</defs>
</svg>
