<svg width="24" height="24" viewBox="0 0 24 24" fill="none" xmlns="http://www.w3.org/2000/svg">
<path fill-rule="evenodd" clip-rule="evenodd" d="M3 3.6C3 3.03995 3 2.75992 3.10899 2.54601C3.20487 2.35785 3.35785 2.20487 3.54601 2.10899C3.75992 2 4.03995 2 4.6 2H19.4C19.9601 2 20.2401 2 20.454 2.10899C20.6422 2.20487 20.7951 2.35785 20.891 2.54601C21 2.75992 21 3.03995 21 3.6V10.4C21 10.9601 21 11.2401 20.891 11.454C20.7951 11.6422 20.6422 11.7951 20.454 11.891C20.2401 12 19.9601 12 19.4 12H4.6C4.03995 12 3.75992 12 3.54601 11.891C3.35785 11.7951 3.20487 11.6422 3.10899 11.454C3 11.2401 3 10.9601 3 10.4V3.6ZM3 15C3 14.4477 3.44772 14 4 14H14C14.5523 14 15 14.4477 15 15C15 15.5523 14.5523 16 14 16H4C3.44772 16 3 15.5523 3 15ZM4 18C3.44772 18 3 18.4477 3 19C3 19.5523 3.44772 20 4 20H12C12.5523 20 13 19.5523 13 19C13 18.4477 12.5523 18 12 18H4Z" fill="#B8B8B8"/>
<path d="M21 18H23C23.2652 18 23.5196 18.1054 23.7071 18.2929C23.8946 18.4804 24 18.7348 24 19C24 19.2652 23.8946 19.5196 23.7071 19.7071C23.5196 19.8946 23.2652 20 23 20H21V22C21 22.2652 20.8946 22.5196 20.7071 22.7071C20.5196 22.8946 20.2652 23 20 23C19.7348 23 19.4804 22.8946 19.2929 22.7071C19.1054 22.5196 19 22.2652 19 22V20H17C16.7348 20 16.4804 19.8946 16.2929 19.7071C16.1054 19.5196 16 19.2652 16 19C16 18.7348 16.1054 18.4804 16.2929 18.2929C16.4804 18.1054 16.7348 18 17 18H19V16C19 15.7348 19.1054 15.4804 19.2929 15.2929C19.4804 15.1054 19.7348 15 20 15C20.2652 15 20.5196 15.1054 20.7071 15.2929C20.8946 15.4804 21 15.7348 21 16V18Z" fill="#B8B8B8"/>
</svg>
