<svg width="24" height="24" viewBox="0 0 24 24" fill="none" xmlns="http://www.w3.org/2000/svg">
<path d="M7.58957 22.0537C11.2289 22.0537 14.1791 19.1034 14.1791 15.4641C14.1791 11.8248 11.2289 8.87451 7.58957 8.87451C3.95025 8.87451 1 11.8248 1 15.4641C1 19.1034 3.95025 22.0537 7.58957 22.0537Z" fill="#02D15C"/>
<path d="M19.0187 21.2234C21.2175 21.2234 23 19.4409 23 17.2421C23 15.0432 21.2175 13.2607 19.0187 13.2607C16.8199 13.2607 15.0374 15.0432 15.0374 17.2421C15.0374 19.4409 16.8199 21.2234 19.0187 21.2234Z" fill="#FF4053"/>
<path d="M8.84921 8.0197C10.2101 8.0197 11.3134 6.91644 11.3134 5.5555C11.3134 4.19457 10.2101 3.09131 8.84921 3.09131C7.48827 3.09131 6.38501 4.19457 6.38501 5.5555C6.38501 6.91644 7.48827 8.0197 8.84921 8.0197Z" fill="#A168F7"/>
<path d="M17.4708 12.4025C20.4296 12.4025 22.8282 10.0038 22.8282 7.04498C22.8282 4.08612 20.4296 1.6875 17.4708 1.6875C14.5119 1.6875 12.1133 4.08612 12.1133 7.04498C12.1133 10.0038 14.5119 12.4025 17.4708 12.4025Z" fill="#00AAFF"/>
</svg>
