<svg width="24" height="24" viewBox="0 0 24 24" fill="none" xmlns="http://www.w3.org/2000/svg">
<path d="M13.8495 13C14.5672 13 15.1629 13 15.6524 13.0381C16.1634 13.0778 16.6341 13.1631 17.0867 13.3739C17.7647 13.6896 18.3406 14.1891 18.749 14.8156C19.0216 15.2338 19.1726 15.6877 19.2843 16.188C19.3912 16.6672 19.4754 17.2569 19.5769 17.9674L19.99 20.8586C20.031 21.1456 19.9454 21.4362 19.7555 21.6552C19.5655 21.8742 19.2899 22 19 22H5.00001C4.71012 22 4.43449 21.8742 4.24455 21.6552C4.05462 21.4362 3.96906 21.1456 4.01006 20.8586L4.42309 17.9674C4.52457 17.2569 4.6088 16.6672 4.71574 16.188C4.82737 15.6877 4.97837 15.2338 5.25103 14.8156C5.65945 14.1891 6.23533 13.6896 6.9133 13.3739C7.36592 13.1631 7.83661 13.0778 8.34763 13.0381C8.83715 13 9.43281 13 10.1505 13H13.8495Z" fill="#B8B8B8"/>
<path d="M12 11C14.4853 11 16.5 8.98528 16.5 6.5C16.5 4.01472 14.4853 2 12 2C9.51473 2 7.50001 4.01472 7.50001 6.5C7.50001 8.98528 9.51473 11 12 11Z" fill="#B8B8B8"/>
</svg>
