<svg width="14" height="20" viewBox="0 0 14 20" fill="none" xmlns="http://www.w3.org/2000/svg">
<path d="M2.5249 9.91151C3.3712 9.91151 4.10477 10.3501 4.56201 11.0007H5.82666C6.67597 11.0007 7.40132 11.4374 7.85889 12.0909H11.1255C12.2067 12.0909 12.9956 13.0386 12.9956 14.0944C12.9955 14.3251 12.8518 14.5318 12.6353 14.6112L6.55713 16.8404C5.8649 17.0943 5.09674 17.0355 4.45068 16.6802L1.28662 14.9394C1.11098 14.8428 1.0016 14.6583 1.00146 14.4578V9.91151H2.5249ZM2.10107 14.1315L4.97998 15.716C5.34736 15.9181 5.78457 15.9512 6.17822 15.8069L11.8315 13.733C11.7055 13.3952 11.4117 13.1908 11.1255 13.1908H8.32275C8.35597 13.3664 8.37354 13.5472 8.37354 13.731C8.37347 14.0348 8.12745 14.281 7.82373 14.281H4.85303V13.1811H7.18896C6.98303 12.5316 6.4255 12.1016 5.82666 12.1016H4.25537C4.05177 12.1016 3.86442 11.9885 3.76904 11.8086C3.50675 11.3142 3.03554 11.0115 2.5249 11.0115H2.10107V14.1315Z" fill="#E3E3E3"/>
<path d="M7.0365 5.18854C7.68945 4.54274 8.72272 4.5023 9.42322 5.06744L9.55896 5.18854L9.5697 5.19928L9.61267 5.24518L9.62146 5.25397L9.72888 5.38385C10.2313 6.05108 10.1956 6.9885 9.62146 7.61725L9.61169 7.62799L9.56873 7.67291L9.55896 7.68268L6.99255 10.2208L4.5199 7.77447L4.43689 7.69147L4.42908 7.6817L4.37927 7.63189L4.37439 7.62604C3.74448 6.93636 3.76593 5.8731 4.43689 5.20904L4.44177 5.20318L4.44763 5.1983L4.49353 5.15533L4.5033 5.14654C5.13571 4.58153 6.07899 4.54591 6.75037 5.0401L6.88123 5.14654L6.89099 5.15533L6.93689 5.1983L6.94373 5.20416L6.94958 5.211L6.98083 5.24225L7.0365 5.18854ZM8.78259 5.96881C8.51447 5.70589 8.0771 5.70643 7.80994 5.97076L7.80896 5.97174L6.97693 6.79303L6.59021 6.40729L6.18494 6.00104L6.14783 5.96588C5.89052 5.73659 5.49276 5.73718 5.23572 5.96686L5.2074 5.99322C4.96049 6.24048 4.95446 6.62931 5.18689 6.88385L5.21521 6.91314L5.29333 6.99225L6.99255 8.67291L8.78552 6.90045L8.80994 6.87311C9.0371 6.62268 9.03725 6.24611 8.80896 5.99615L8.78259 5.96881Z" fill="white"/>
</svg>
