<svg width="14" height="20" viewBox="0 0 14 20" fill="none" xmlns="http://www.w3.org/2000/svg">
<path fill-rule="evenodd" clip-rule="evenodd" d="M7 4C10.866 4 14 7.13401 14 11C14 14.866 10.866 18 7 18C3.13401 18 0 14.866 0 11C0 7.13401 3.13401 4 7 4ZM7 13C6.44772 13 6 13.4477 6 14C6 14.5523 6.44772 15 7 15C7.55228 15 8 14.5523 8 14C8 13.4477 7.55228 13 7 13ZM7.00098 6.83008C5.94765 6.8301 5.06828 7.56058 4.83105 8.53906L4.66602 9.21875L6.02734 9.54883L6.19238 8.86816C6.28188 8.50003 6.61216 8.23049 7.00098 8.23047C7.84766 8.23047 8.15462 9.36946 7.41602 9.7959C6.67741 10.2223 6.30078 10.7852 6.30078 11.6455V12.0039H7.70117V11.6455C7.70117 11.2734 7.83398 11.1715 8.11914 11.0068C8.78475 10.6203 9.23331 9.89633 9.2334 9.06836C9.2332 7.83474 8.23641 6.83008 7.00098 6.83008Z" fill="#A3A3A3"/>
</svg>
