<svg width="16" height="16" viewBox="0 0 16 16" fill="none" xmlns="http://www.w3.org/2000/svg">
<path d="M12.0034 1.69279C11.7464 1.43574 11.3296 1.43574 11.0725 1.69279L9.89238 2.87295L13.1271 6.10762L14.3072 4.92746C14.5643 4.6704 14.5643 4.25364 14.3072 3.99658L12.0034 1.69279ZM12.1962 7.03849L8.96151 3.80382L3.00926 9.75607C2.94125 9.82408 2.88897 9.90617 2.8561 9.99656L1.53964 13.6168C1.45457 13.8508 1.50876 14.1127 1.67966 14.2937C1.85056 14.4747 2.10895 14.5437 2.34738 14.4722L5.63852 13.4849C5.74285 13.4536 5.83779 13.3969 5.91481 13.3199L12.1962 7.03849Z" fill="black"/>
</svg>
