<svg width="14" height="16" viewBox="0 0 14 16" fill="none" xmlns="http://www.w3.org/2000/svg">
<g clip-path="url(#clip0_3943_19005)">
<g clip-path="url(#clip1_3943_19005)">
<path fill-rule="evenodd" clip-rule="evenodd" d="M1.88194 4.60326C0.439093 5.9739 0.439093 8.22291 1.88194 9.59355L6.65544 14.1281C6.75193 14.2198 6.87587 14.2656 6.9998 14.2656C7.12374 14.2656 7.24768 14.2198 7.34417 14.1281L12.1177 9.59351C13.5605 8.22287 13.5605 5.97386 12.1177 4.60322C10.7097 3.26572 8.4512 3.26572 7.04323 4.60322L6.9998 4.64451L6.95638 4.60326C5.54841 3.26576 3.28991 3.26576 1.88194 4.60326ZM6.9998 12.8001L2.70842 8.72353C1.7636 7.826 1.7636 6.37081 2.70842 5.47328C3.65323 4.57576 5.18509 4.57576 6.1299 5.47329C6.28748 5.62297 6.41428 5.78767 6.537 5.98001C6.64542 6.14994 6.82258 6.23344 6.9998 6.23179C7.17703 6.23344 7.35419 6.1499 7.46261 5.97997C7.58533 5.78763 7.71213 5.62293 7.8697 5.47325C8.81452 4.57572 10.3464 4.57572 11.2912 5.47324C12.236 6.37077 12.236 7.82596 11.2912 8.72349L6.9998 12.8001Z" fill="black"/>
</g>
</g>
<defs>
<clipPath id="clip0_3943_19005">
<rect width="14" height="16" fill="white"/>
</clipPath>
<clipPath id="clip1_3943_19005">
<rect width="14" height="16" fill="white"/>
</clipPath>
</defs>
</svg>
