<svg width="10" height="16" viewBox="0 0 10 16" fill="none" xmlns="http://www.w3.org/2000/svg">
<g clip-path="url(#clip0_3943_19002)">
<g clip-path="url(#clip1_3943_19002)">
<path fill-rule="evenodd" clip-rule="evenodd" d="M3.99998 5C3.99998 4.44772 4.4477 4 4.99998 4C5.55227 4 5.99998 4.44772 5.99998 5C5.99998 5.55228 5.55227 6 4.99998 6C4.4477 6 3.99998 5.55228 3.99998 5ZM4.99998 3C3.89542 3 2.99998 3.89543 2.99998 5C2.99998 6.10457 3.89542 7 4.99998 7C6.10455 7 6.99998 6.10457 6.99998 5C6.99998 3.89543 6.10455 3 4.99998 3ZM3.76555 8C2.50474 8 1.44124 8.93884 1.28485 10.1899L1.00385 12.438L0.933594 13H1.49998H8.50005H9.06645L8.99618 12.438L8.71514 10.1899C8.55874 8.93882 7.49524 8 6.23445 8H3.76555ZM2.27713 10.3139C2.37096 9.5633 3.00906 9 3.76555 9H6.23445C6.99092 9 7.62902 9.56329 7.72286 10.3139L7.93365 12H2.06638L2.27713 10.3139Z" fill="black"/>
</g>
</g>
<defs>
<clipPath id="clip0_3943_19002">
<rect width="10" height="16" fill="white"/>
</clipPath>
<clipPath id="clip1_3943_19002">
<rect width="10" height="16" fill="white"/>
</clipPath>
</defs>
</svg>
