<svg width="14" height="16" viewBox="0 0 14 16" fill="none" xmlns="http://www.w3.org/2000/svg">
<g clip-path="url(#clip0_3943_18999)">
<path fill-rule="evenodd" clip-rule="evenodd" d="M6.9999 4C3.90012 4 1.54547 6.02837 0.452157 8.4737C0.382484 8.62954 0.382484 8.80767 0.452157 8.9635C1.56146 11.4446 3.93522 13.2 6.99991 13.2C10.0646 13.2 12.4383 11.4446 13.5476 8.9635C13.6173 8.80767 13.6173 8.62954 13.5476 8.4737C12.4543 6.02837 10.0997 4 6.9999 4ZM6.99991 12C4.54037 12 2.63314 10.6638 1.66309 8.71803C2.64806 6.72397 4.57249 5.2 6.9999 5.2C9.42731 5.2 11.3517 6.72397 12.3367 8.71803C11.3667 10.6638 9.45944 12 6.99991 12ZM6.9999 10.6C8.10447 10.6 8.9999 9.70457 8.9999 8.6C8.9999 7.49543 8.10447 6.6 6.9999 6.6C5.89533 6.6 4.9999 7.49543 4.9999 8.6C4.9999 9.70457 5.89533 10.6 6.9999 10.6Z" fill="black"/>
</g>
<defs>
<clipPath id="clip0_3943_18999">
<rect width="14" height="16" fill="white"/>
</clipPath>
</defs>
</svg>
