<svg width="24" height="24" viewBox="0 0 24 24" fill="none" xmlns="http://www.w3.org/2000/svg">
<path d="M15.5 14.5C16.5249 14.5 17.4041 15.1174 17.79 16H20C20.5523 16 21 16.4477 21 17C21 17.5523 20.5523 18 20 18H17.79C17.4041 18.8826 16.5249 19.5 15.5 19.5C14.4751 19.5 13.5959 18.8826 13.21 18H4C3.44772 18 3 17.5523 3 17C3 16.4477 3.44772 16 4 16H13.21C13.5959 15.1174 14.4751 14.5 15.5 14.5ZM8.5 5.5C9.52488 5.5 10.4041 6.11743 10.79 7H20C20.5523 7 21 7.44772 21 8C21 8.55228 20.5523 9 20 9H10.79C10.4041 9.88257 9.52488 10.5 8.5 10.5C7.47512 10.5 6.5959 9.88257 6.20996 9H4C3.44772 9 3 8.55228 3 8C3 7.44772 3.44772 7 4 7H6.20996C6.5959 6.11743 7.47512 5.5 8.5 5.5Z" fill="black"/>
</svg>
