<svg width="20" height="20" viewBox="0 0 20 20" fill="none" xmlns="http://www.w3.org/2000/svg">
<path d="M17.2544 16.0683L13.7231 12.5361C14.5243 11.4854 15 10.1733 15 8.75C15 5.29822 12.2018 2.5 8.75 2.5C5.29822 2.5 2.5 5.29822 2.5 8.75C2.5 12.2018 5.29822 15 8.75 15C10.1735 15 11.4858 14.5241 12.5365 13.7228L16.0679 17.2552C16.3949 17.5823 16.9253 17.5814 17.253 17.2537C17.5829 16.9237 17.5813 16.3953 17.2544 16.0683ZM13.3333 8.75C13.3333 11.2813 11.2813 13.3333 8.75 13.3333C6.21869 13.3333 4.16667 11.2813 4.16667 8.75C4.16667 6.21869 6.21869 4.16667 8.75 4.16667C11.2813 4.16667 13.3333 6.21869 13.3333 8.75Z" fill="#757575"/>
</svg>
