<svg width="16" height="11" viewBox="0 0 16 11" fill="none" xmlns="http://www.w3.org/2000/svg">
<path d="M7.7 8.00003C9.08072 8.00003 10.2 6.88074 10.2 5.50003C10.2 4.11932 9.08072 3.00003 7.7 3.00003C6.31929 3.00003 5.2 4.11932 5.2 5.50003C5.2 6.88074 6.31929 8.00003 7.7 8.00003Z" fill="black"/>
<path fill-rule="evenodd" clip-rule="evenodd" d="M7.7 0C4.06197 0 1.32426 2.53827 0.0591043 5.41848C-0.0197014 5.59789 -0.0197014 5.80211 0.0591043 5.98152C1.35012 8.9206 4.11748 11.0092 7.7 11.0092C11.2825 11.0092 14.0499 8.9206 15.3409 5.98152C15.4197 5.80211 15.4197 5.59789 15.3409 5.41848C14.0757 2.53827 11.338 0 7.7 0ZM7.7 9.60916C4.83308 9.60916 2.60402 8.02141 1.47092 5.69913C2.62816 3.29805 4.88404 1.4 7.7 1.4C10.516 1.4 12.7718 3.29805 13.9291 5.69912C12.796 8.0214 10.5669 9.60916 7.7 9.60916Z" fill="black"/>
</svg>
