<svg width="109" height="30" viewBox="0 0 109 30" fill="none" xmlns="http://www.w3.org/2000/svg">
<path d="M41.4276 0.620789L32.0664 25.0625H37.0946L39.019 19.9556H48.9513L50.884 25.0625H55.8749L46.5717 0.620789H41.4276ZM40.7447 15.4696L44.0141 6.86985L47.2711 15.4696H40.7447Z" fill="black"/>
<path d="M61.8836 18.7597L57.8238 7.89209H53.0273L59.5661 25.0625H64.3212L70.7441 7.89209H65.9476L61.8836 18.7597Z" fill="black"/>
<path d="M76.7757 7.89209H72.2109V25.0625H76.7757V7.89209Z" fill="black"/>
<path d="M74.4914 6.65463C76.329 6.65463 77.8187 5.16494 77.8187 3.32732C77.8187 1.48969 76.329 0 74.4914 0C72.6538 0 71.1641 1.48969 71.1641 3.32732C71.1641 5.16494 72.6538 6.65463 74.4914 6.65463Z" fill="black"/>
<path d="M85.8232 3.31079H81.2709V7.86309H78.6016V12.0015H81.2709V19.2976C81.2709 23.4361 83.5512 25.2156 86.7626 25.2156C87.8464 25.2299 88.9214 25.02 89.9202 24.599V20.3447C89.3751 20.5443 88.7998 20.6493 88.2193 20.655C86.8247 20.655 85.819 20.1129 85.819 18.2547V12.0015H89.9202V7.90447H85.8232V3.31079Z" fill="black"/>
<path d="M99.519 7.58167C97.7589 7.58085 96.038 8.1021 94.5742 9.07947C93.1103 10.0568 91.9692 11.4464 91.2953 13.0724C90.6213 14.6984 90.4448 16.4878 90.788 18.2142C91.1311 19.9405 91.9787 21.5263 93.2233 22.7709C94.4679 24.0156 96.0537 24.8631 97.78 25.2063C99.5064 25.5494 101.296 25.3729 102.922 24.6989C104.548 24.025 105.937 22.8839 106.915 21.42C107.892 19.9562 108.413 18.2353 108.413 16.4752C108.411 14.1168 107.474 11.8554 105.806 10.1877C104.139 8.52011 101.877 7.58276 99.519 7.58167V7.58167ZM99.519 20.8247C98.6619 20.8255 97.8237 20.5721 97.1106 20.0965C96.3975 19.6209 95.8415 18.9445 95.5129 18.1528C95.1843 17.3611 95.0979 16.4898 95.2647 15.649C95.4314 14.8082 95.8437 14.0357 96.4495 13.4294C97.0553 12.823 97.8274 12.4099 98.668 12.2424C99.5087 12.0748 100.38 12.1604 101.172 12.4882C101.964 12.8161 102.641 13.3714 103.117 14.0841C103.594 14.7967 103.848 15.6346 103.848 16.4918C103.846 17.638 103.388 18.7365 102.577 19.5459C101.765 20.3552 100.665 20.8093 99.519 20.8082V20.8247Z" fill="black"/>
<path d="M8.89768 27.5C13.8117 27.5 17.7954 23.5164 17.7954 18.6023C17.7954 13.6883 13.8117 9.70465 8.89768 9.70465C3.98363 9.70465 0 13.6883 0 18.6023C0 23.5164 3.98363 27.5 8.89768 27.5Z" fill="#04E061"/>
<path d="M24.329 26.3785C27.298 26.3785 29.7048 23.9717 29.7048 21.0027C29.7048 18.0337 27.298 15.6268 24.329 15.6268C21.36 15.6268 18.9531 18.0337 18.9531 21.0027C18.9531 23.9717 21.36 26.3785 24.329 26.3785Z" fill="#FF4053"/>
<path d="M10.5969 8.55008C12.4345 8.55008 13.9242 7.06039 13.9242 5.22276C13.9242 3.38514 12.4345 1.89545 10.5969 1.89545C8.75922 1.89545 7.26953 3.38514 7.26953 5.22276C7.26953 7.06039 8.75922 8.55008 10.5969 8.55008Z" fill="#965EEB"/>
<path d="M22.2418 14.468C26.2371 14.468 29.4758 11.2293 29.4758 7.23402C29.4758 3.23878 26.2371 0 22.2418 0C18.2466 0 15.0078 3.23878 15.0078 7.23402C15.0078 11.2293 18.2466 14.468 22.2418 14.468Z" fill="#00AAFF"/>
</svg>
