<svg width="14" height="14" viewBox="0 0 14 14" fill="none" xmlns="http://www.w3.org/2000/svg">
<path d="M6.54426 0.291671C6.72364 -0.0972238 7.27636 -0.0972238 7.45574 0.291671L9.14793 3.96034C9.22104 4.11883 9.37124 4.22796 9.54458 4.24852L13.5566 4.72421C13.9819 4.77463 14.1527 5.3003 13.8383 5.59107L10.8721 8.33412C10.7439 8.45263 10.6865 8.62921 10.7206 8.80041L11.5079 12.7631C11.5914 13.1831 11.1442 13.508 10.7705 13.2988L7.24514 11.3254C7.09283 11.2402 6.90717 11.2402 6.75486 11.3254L3.22946 13.2988C2.85575 13.508 2.4086 13.1831 2.49206 12.7631L3.27944 8.80041C3.31345 8.62921 3.25608 8.45263 3.12793 8.33412L0.16174 5.59107C-0.15269 5.3003 0.0181088 4.77463 0.443402 4.72421L4.45542 4.24852C4.62876 4.22796 4.77896 4.11883 4.85207 3.96034L6.54426 0.291671Z" fill="#F79900"/>
</svg>
