<svg width="16" height="20" viewBox="0 0 16 20" fill="none" xmlns="http://www.w3.org/2000/svg">
<path fill-rule="evenodd" clip-rule="evenodd" d="M8 5.43248L12.6 6.42915V12.3349C12.6 13.2831 12.0838 14.1561 11.253 14.6131L8 16.4022L4.74701 14.6131C3.91619 14.1561 3.4 13.2831 3.4 12.3349V6.42915L8 5.43248ZM4.07233 15.8398L8 18L11.9277 15.8398C13.2059 15.1368 14 13.7937 14 12.3349V6.10654C14 5.63585 13.6718 5.22888 13.2118 5.12921L8 4L2.78825 5.12921C2.32824 5.22888 2 5.63585 2 6.10654V12.3349C2 13.7937 2.79413 15.1368 4.07233 15.8398ZM7.99498 12.995L11.495 9.49497L10.505 8.50503L7.5 11.5101L5.99497 10.005L5.00503 10.995L7.00503 12.995L7.5 13.49L7.99498 12.995Z" fill="black"/>
</svg>
