<svg width="32" height="32" viewBox="0 0 32 32" fill="none" xmlns="http://www.w3.org/2000/svg">
<path d="M15.9993 22.0002C19.313 22.0002 21.9993 19.314 21.9993 16.0002C21.9993 12.6865 19.313 10.0002 15.9993 10.0002C12.6856 10.0002 9.99927 12.6865 9.99927 16.0002C9.99927 19.314 12.6856 22.0002 15.9993 22.0002Z" fill="black"/>
<path fill-rule="evenodd" clip-rule="evenodd" d="M26.7992 16.0002C26.7992 21.9649 21.9639 26.8002 15.9992 26.8002C10.0345 26.8002 5.19922 21.9649 5.19922 16.0002C5.19922 10.0355 10.0345 5.2002 15.9992 5.2002C21.9639 5.2002 26.7992 10.0355 26.7992 16.0002ZM24.3992 16.0002C24.3992 20.6394 20.6384 24.4002 15.9992 24.4002C11.36 24.4002 7.59922 20.6394 7.59922 16.0002C7.59922 11.361 11.36 7.6002 15.9992 7.6002C20.6384 7.6002 24.3992 11.361 24.3992 16.0002Z" fill="black"/>
</svg>
